<svg xmlns="http://www.w3.org/2000/svg" viewBox="0 0 221.6 189"><defs><style>      .cls-1 {        fill: #1d1d1b;      }      .cls-2 {        fill: #d4310f;      }    </style></defs><g><g id="Calque_1"><g><path class="cls-1" d="M46.6,151c-12.5,0-18.7-7.6-18.7-22.9s9.6-27.1,28.9-27.1h10.7v19.9c0,7.9.1,15.5.4,22.7-5.9,4.9-13,7.4-21.3,7.4M94.7,115.5v-8.9c0-30.8-16.3-45.8-50.2-45.8s-10.4.7-15.5,2.2c-6.7,1.9-11.7,5.1-14.9,9.7-1.5,2.1-2.3,4.4-2.3,6.9,0,3,1.1,5.5,3.1,7.6,2.1,2.1,4.6,3.1,7.5,3.1s5.4-1,7.5-3.1c2.1-2.1,3.1-4.6,3.1-7.5s-1-5.5-3.1-7.6c-1.2-1.3-1.8-2.4-1.8-3.4,0-1.4,1.3-2.4,3.9-2.9,4.1-.9,8.2-1.4,12.3-1.4,15.3,0,23,8.4,23,25.2v8h-7.8c-39.8,0-59.7,10.2-59.7,30.6s15.6,26.4,46.6,26.4,15.7-2.3,21.6-7c.4-.3,1.3.5,2.6,2.5,0,0,0,0,0,0,2.2-1.6,4.5-3.4,6.8-5.5,7.2-6.7,12.2-16.3,17.1-29.1"></path><path class="cls-1" d="M108,96.4l21.1-58.9,21.2,58.9h-42.3ZM200.8,147c-2.3-1.2-4.6-4.9-6.9-11.3L143.9,0h-4.6l-39.1,108.8c-1.2,3.4-2.4,6.4-3.5,9.2h0c0,0,0,.1,0,.2-.1.3-.2.6-.3.9-.4,1-.8,2-1.2,2.9-.2.4-.3.8-.5,1.2-.3.8-.7,1.6-1,2.4-.1.3-.3.7-.4,1-.5,1-.9,2-1.3,2.9,0,.1-.1.3-.2.4-.4.8-.7,1.5-1.1,2.1-.1.3-.3.5-.4.7-.3.5-.6,1.1-.9,1.5-.1.2-.2.4-.4.6-.4.6-.8,1.2-1.1,1.7-.6.8-1.1,1.5-1.7,2.2-3.5,4.3-7.7,7.8-12.1,10.5.7.8,1.6,1.5,2.5,1.7h38.3s0-2.3,0-2.3c-7.9,0-6.9-1.2-11.3-3.7-4.3-2.5-6.5-6.6-6.5-12.3s.9-8.1,2.8-13.3l7.1-20.4h44.6l14.7,40.9.5,2.3c0,2.7-2.2,4.4-6.5,5.2-4.3.9-6.5,1.3-18,1.3v2.3h79.5v-2.3c-11.6,0-18.5-.6-20.8-1.7"></path><path class="cls-2" d="M0,184.9l1.6-1c1.1,2.1,2.4,3.2,3.9,3.2s1.2-.2,1.8-.5c.6-.3,1-.7,1.3-1.2.3-.5.4-1,.4-1.6s-.2-1.3-.6-1.9c-.6-.9-1.7-1.9-3.3-3.1-1.6-1.2-2.6-2.1-3-2.6-.7-.9-1-1.9-1-2.9s.2-1.6.6-2.3c.4-.7,1-1.2,1.7-1.6.7-.4,1.5-.6,2.3-.6s1.7.2,2.5.7c.8.4,1.6,1.3,2.5,2.5l-1.5,1.2c-.7-1-1.3-1.6-1.8-1.9-.5-.3-1.1-.5-1.6-.5s-1.4.2-1.9.7-.7,1-.7,1.7,0,.8.3,1.2c.2.4.5.8.9,1.3.2.2,1.1.9,2.5,1.9,1.6,1.2,2.8,2.3,3.4,3.3.6,1,.9,1.9.9,2.9,0,1.4-.5,2.6-1.6,3.6-1,1-2.3,1.5-3.8,1.5s-2.2-.3-3.1-.9c-.9-.6-1.8-1.7-2.6-3.1"></path></g><path class="cls-2" d="M27.3,173.4l3.2,6.9h-6.5l3.3-6.9ZM27.1,169.3l-9,19.2h2.1l3-6.3h8.2l3,6.3h2.1l-8.9-19.2h-.5Z"></path><rect class="cls-2" x="43.7" y="169.3" width="1.9" height="19.2"></rect><polygon class="cls-2" points="67.6 169.3 67.6 184 54.9 169.3 54.5 169.3 54.5 188.5 56.5 188.5 56.5 174 69 188.5 69.4 188.5 69.4 169.3 67.6 169.3"></polygon><polygon class="cls-2" points="76.8 169.3 76.8 171.2 81 171.2 81 188.5 82.9 188.5 82.9 171.2 87.2 171.2 87.2 169.3 76.8 169.3"></polygon><rect class="cls-1" x="93" y="180.5" width="7.1" height="1.6"></rect><polygon class="cls-2" points="106 169.3 106 171.2 110.2 171.2 110.2 188.5 112.2 188.5 112.2 171.2 116.4 171.2 116.4 169.3 106 169.3"></polygon><g><path class="cls-2" d="M125.7,171.2v6.5h3.3c1.3,0,2.2,0,2.8-.3.6-.2,1.1-.6,1.4-1.2.3-.5.5-1.1.5-1.8s-.2-1.2-.5-1.8c-.3-.5-.8-.9-1.4-1.1-.6-.2-1.5-.3-2.8-.3h-3.3ZM123.8,169.3h3.8c2.1,0,3.5,0,4.3.3,1.1.3,2,.8,2.7,1.7.7.9,1.1,1.9,1.1,3.2s-.2,2-.7,2.8c-.5.8-1.2,1.4-2.1,1.8-.9.4-2.2.6-3.7.6l6.8,8.9h-2.3l-6.8-8.9h-1.1v8.9h-1.9v-19.2Z"></path><path class="cls-2" d="M153.5,170.7c-1.4,0-2.7.4-4,1.1-1.3.7-2.2,1.7-2.9,3-.7,1.3-1.1,2.7-1.1,4.2,0,2.3.8,4.2,2.3,5.8,1.6,1.6,3.4,2.4,5.7,2.4s2.8-.4,4.1-1.1c1.3-.7,2.2-1.7,2.9-3,.7-1.3,1.1-2.7,1.1-4.2s-.4-2.9-1.1-4.1c-.7-1.2-1.7-2.2-3-3-1.3-.7-2.6-1.1-4.1-1.1M153.4,168.8c2.9,0,5.3,1,7.2,2.9,1.9,1.9,2.9,4.3,2.9,7.2s-1,5.2-2.9,7.2c-1.9,2-4.3,2.9-7.1,2.9s-5.2-1-7.1-2.9c-1.9-2-2.9-4.3-2.9-7.1s.4-3.6,1.3-5.1c.9-1.6,2.1-2.8,3.6-3.7,1.5-.9,3.2-1.3,4.9-1.3"></path><path class="cls-2" d="M173.8,171.2v6.5h3.2c1.3,0,2.3,0,2.9-.3.6-.2,1.1-.6,1.4-1.2.3-.5.5-1.1.5-1.8s-.2-1.2-.5-1.8c-.3-.5-.8-.9-1.4-1.1-.6-.2-1.5-.3-2.8-.3h-3.4ZM171.9,169.3h3.8c2.2,0,3.6,0,4.4.3,1.1.3,2,.8,2.7,1.7.7.8,1,1.9,1,3.2s-.3,2.3-1,3.2c-.7.8-1.6,1.4-2.8,1.7-.9.2-2.5.3-4.8.3h-1.4v8.9h-1.9v-19.2Z"></path></g><polygon class="cls-2" points="192.2 169.3 192.2 188.5 203 188.5 203 186.6 194.1 186.6 194.1 179.1 203 179.1 203 177.2 194.1 177.2 194.1 171.2 203.1 171.2 203.1 169.3 192.2 169.3"></polygon><polygon class="cls-2" points="210.2 169.3 210.2 171.2 217.4 171.2 209.4 188.5 219.8 188.5 219.8 186.6 212.3 186.6 220.2 169.3 210.2 169.3"></polygon><path class="cls-2" d="M127.9,142.7c-.7-.7-1.2-1.2-1.4-1.4l-3.3-3.1c-1.8-1.8-4.2-4.4-7.2-7.8-3-3.4-5.4-6.3-7.1-8.7-1.4-1.9-2.6-2.8-3.6-2.8-1.5,0-3,1-4.5,3.1-1.5,2.1-2.3,4.6-2.3,7.7s1.3,7.3,3.9,10.7c3.6,4.7,8.2,7,13.8,7s8.5-1.5,11.6-4.6M133.3,139.7c6.7,6.4,11.6,9.5,14.7,9.5s.8,0,1.3-.3c.5-.2.9-.3,1.2-.3.4,0,.6.2.6.6,0,.6-.7,1.2-2.2,1.8-1.5.6-3,.9-4.6.9-2.3,0-4.3-.5-6.2-1.5-1.9-1-4.5-3-8.1-6-5,5-10.3,7.5-15.8,7.5s-10.3-1.8-14-5.5c-3.7-3.6-5.5-8.2-5.5-13.8s1.4-8.5,4.3-11.6c1.6-1.8,3.8-3.1,6.6-3.8-2-2.9-3-5.8-3-8.6s1-5.5,3-7.3c2-1.9,4.7-2.8,8-2.8s3.4.4,5.3,1.2l1.6.7h.3c.2,0,.4,0,.7-.3.2-.2.4-.3.6-.3.6,0,.9.9.9,2.7v2.1c.1,0,.3,3,.3,3,0,.6,0,1,0,1.2,0,.6-.2.8-.7.8s-.5-.3-.7-.9c-.6-2.1-1.9-3.9-3.9-5.5-1.9-1.6-3.9-2.4-5.7-2.4s-2.9.5-4.1,1.6c-1.1,1.1-1.7,2.4-1.7,4s.5,3.1,1.6,5c1.1,1.9,2.9,4.3,5.4,7.2l8.5,9.9c2.2,2.6,5.4,5.8,9.4,9.7,1.2-2.2,1.7-4.7,1.7-7.4s-.4-3.7-1.1-5.1c-.7-1.4-1.7-2.2-2.9-2.4l-1.6-.3c-.7-.2-1-.5-1-1,0-.3.3-.5.7-.5s.5,0,.9.1c.7,0,2.6.2,5.9.2s2,0,2.8-.2c.8,0,1.4-.1,1.7-.1s.6.2.6.6-.3.7-.9,1c-.7.3-1.2.8-1.5,1.5-.3.7-.5,2-.6,3.9-.3,4.3-1.3,8.1-3,11.4"></path></g></g></svg>